# xmcd
#
# Track frame offsets:
# 150
# 13995
# 27507
# 43982
# 59095
# 86066
# 106699
# 126619
# 138203
# 151227
#
# Disc length: 2227 seconds
#
#
# Revision: 4
# Processed by: cddbd v1.5.2PL0 Copyright (c) Steve Scherf et al.
# Submitted via: FreeRIP 2.945 
#
DISCID=8e08b10a
DTITLE=רמי פורטיס - פלונטר ,מהדורה מיוחדת דיסק 1 1
DYEAR=1981
DGENRE=Rock
TTITLE0=דבש
TTITLE1=הדור הזה
TTITLE2=היא קילקלה את כולם
TTITLE3=למדי אותי הלילה
TTITLE4=המוות אינו מחוסר עבודה
TTITLE5=רד מעל מסך הטלוויזיה שלי
TTITLE6=שמש לך מצפים
TTITLE7=April Fools
TTITLE8=מחפש את עצמי
TTITLE9=אינקובטור
EXTD=fixed YEAR: 1981
EXTT0=
EXTT1=
EXTT2=
EXTT3=
EXTT4=
EXTT5=
EXTT6=
EXTT7=
EXTT8=
EXTT9=
PLAYORDER=
